<svg width="160" height="160" viewBox="0 0 160 160" fill="none" xmlns="http://www.w3.org/2000/svg">
<ellipse opacity="0.1" cx="80" cy="155.2" rx="80" ry="4.8" fill="#5F5E95"/>
<path fill-rule="evenodd" clip-rule="evenodd" d="M122.272 18.8389C122.272 16.5108 124.159 14.6235 126.487 14.6235C128.815 14.6235 130.703 16.5108 130.703 18.8389V27.5106C130.703 29.8387 128.815 31.7259 126.487 31.7259C124.159 31.7259 122.272 29.8387 122.272 27.5106V18.8389ZM126.487 17.8235C125.926 17.8235 125.472 18.2781 125.472 18.8389V27.5106C125.472 28.0713 125.926 28.5259 126.487 28.5259C127.048 28.5259 127.503 28.0713 127.503 27.5106V18.8389C127.503 18.2781 127.048 17.8235 126.487 17.8235ZM32 46.4001C32 38.4472 38.4471 32.0001 46.4 32.0001H113.6C121.553 32.0001 128 38.4472 128 46.4001V99.7156C138.065 101.913 145.6 110.877 145.6 121.6C145.6 133.971 135.571 144 123.2 144C113.053 144 104.481 137.253 101.728 128H46.4C38.4471 128 32 121.553 32 113.6V46.4001ZM101.027 124.8C100.877 123.755 100.8 122.687 100.8 121.6C100.8 115.332 103.374 109.666 107.523 105.6H51.2C45.8981 105.6 41.6 101.302 41.6 96.0001V51.2001C41.6 45.8982 45.8981 41.6001 51.2 41.6001H108.8C114.102 41.6001 118.4 45.8982 118.4 51.2001V96.0001C118.4 97.3941 118.103 98.7186 117.569 99.9139C119.368 99.448 121.255 99.2001 123.2 99.2001C123.738 99.2001 124.272 99.2191 124.8 99.2564V46.4001C124.8 40.2145 119.786 35.2001 113.6 35.2001H46.4C40.2144 35.2001 35.2 40.2145 35.2 46.4001V113.6C35.2 119.786 40.2144 124.8 46.4 124.8H101.027ZM51.2 44.8001C47.6654 44.8001 44.8 47.6655 44.8 51.2001V87.0151L57.1056 74.3151C60.8776 70.4222 67.1224 70.4222 70.8944 74.3151L81.8251 85.5961C83.5208 87.3462 86.2588 87.5479 88.1928 86.0652L94.9591 80.8777C98.4049 78.2359 103.195 78.2359 106.641 80.8777L115.2 87.4397V51.2001C115.2 47.6655 112.335 44.8001 108.8 44.8001H51.2ZM97.0935 68.2074C97.0935 71.8893 94.1169 74.8741 90.4452 74.8741C86.7734 74.8741 83.7969 71.8893 83.7969 68.2074C83.7969 64.5255 86.7734 61.5407 90.4452 61.5407C94.1169 61.5407 97.0935 64.5255 97.0935 68.2074ZM131.445 36.2154C131.445 33.8874 133.333 32.0001 135.661 32.0001H144.332C146.66 32.0001 148.548 33.8874 148.548 36.2154C148.548 38.5435 146.66 40.4308 144.332 40.4308H135.661C133.333 40.4308 131.445 38.5435 131.445 36.2154ZM135.661 35.2001C135.1 35.2001 134.645 35.6547 134.645 36.2154C134.645 36.7762 135.1 37.2308 135.661 37.2308H144.332C144.893 37.2308 145.348 36.7762 145.348 36.2154C145.348 35.6547 144.893 35.2001 144.332 35.2001H135.661ZM104 121.6C104 110.996 112.596 102.4 123.2 102.4C133.804 102.4 142.4 110.996 142.4 121.6C142.4 132.204 133.804 140.8 123.2 140.8C112.596 140.8 104 132.204 104 121.6ZM119.2 111.2C119.2 108.991 120.991 107.2 123.2 107.2C125.409 107.2 127.2 108.991 127.2 111.2V120.8C127.2 123.009 125.409 124.8 123.2 124.8C120.991 124.8 119.2 123.009 119.2 120.8V111.2ZM123.2 110.4C122.758 110.4 122.4 110.758 122.4 111.2V120.8C122.4 121.242 122.758 121.6 123.2 121.6C123.642 121.6 124 121.242 124 120.8V111.2C124 110.758 123.642 110.4 123.2 110.4ZM123.2 136C120.991 136 119.2 134.209 119.2 132C119.2 129.791 120.991 128 123.2 128C125.409 128 127.2 129.791 127.2 132C127.2 134.209 125.409 136 123.2 136ZM122.4 132C122.4 132.442 122.758 132.8 123.2 132.8C123.642 132.8 124 132.442 124 132C124 131.558 123.642 131.2 123.2 131.2C122.758 131.2 122.4 131.558 122.4 132Z" fill="#7C7B91"/>
</svg>
