<svg xmlns="http://www.w3.org/2000/svg" version="1.1" xmlns:xlink="http://www.w3.org/1999/xlink" width="32" height="32"><svg xmlns="http://www.w3.org/2000/svg" version="1.1" xmlns:xlink="http://www.w3.org/1999/xlink" width="32" height="32"><svg width="32" height="32" viewBox="0 0 32 32" fill="none" xmlns="http://www.w3.org/2000/svg">
<rect width="32" height="32" rx="6" fill="#00BBA7"></rect>
<path d="M23.9181 14.1032L22.5835 12.7686C22.5525 12.7376 22.5156 12.7131 22.4751 12.6963C22.4346 12.6796 22.3911 12.6711 22.3473 12.6712H22.0136V12.3375C22.0136 12.2488 21.9783 12.164 21.9162 12.1013L19.2469 9.43202C18.7118 8.89687 17.8149 8 16.0078 8C14.202 8 13.3739 8.82815 12.7686 9.43205C12.7219 9.47869 12.6901 9.53818 12.6773 9.60294C12.6645 9.6677 12.6712 9.73481 12.6966 9.79575C12.7218 9.85676 12.7645 9.90892 12.8194 9.94563C12.8743 9.98234 12.9388 10.0019 13.0049 10.0019C15.6961 10.0019 16.0078 11.1444 16.0078 12.0039C16.0078 12.7179 15.6034 13.2618 15.3451 13.5387L17.5253 15.7189C18.1152 15.3198 18.9533 14.8487 19.3444 14.8834V15.3405C19.3444 15.4292 19.3798 15.514 19.4418 15.5767L21.1101 17.245C21.1729 17.3073 21.2578 17.3423 21.3463 17.3424H21.3577C21.4033 17.3412 21.4482 17.3304 21.4894 17.3109C21.5306 17.2914 21.5674 17.2635 21.5973 17.229L23.9329 14.5597C23.9887 14.4959 24.0183 14.4133 24.0156 14.3286C24.0128 14.2438 23.978 14.1633 23.9181 14.1032ZM8.50449 20.37C8.17952 20.695 8 21.1274 8 21.6266C8 22.5761 8.77209 23.3482 9.72167 23.3482C10.2055 23.3482 10.6699 23.1427 10.9956 22.785L17.0201 16.1579L14.8687 14.0058L8.50449 20.37Z" fill="white"></path>
</svg></svg><style>@media (prefers-color-scheme: light) { :root { filter: none; } }
@media (prefers-color-scheme: dark) { :root { filter: none; } }
</style></svg>