<svg width="209" height="38" viewBox="0 0 209 38" fill="none" xmlns="http://www.w3.org/2000/svg">
<style>
  .text-path {
    fill: #000000;
  }
  @media (prefers-color-scheme: dark) {
    .text-path {
      fill: #ededed;
    }
  }
</style>
<rect y="3" width="32" height="32" rx="8" fill="#00BBA7"/>
<path d="M25.1922 16.9751L23.6669 15.4498C23.6314 15.4144 23.5893 15.3864 23.543 15.3673C23.4966 15.3481 23.447 15.3384 23.3969 15.3385H23.0156V14.9571C23.0156 14.8557 22.9751 14.7588 22.9042 14.6872L19.8536 11.6366C19.242 11.025 18.217 10 16.1518 10C14.088 10 13.1416 10.9465 12.4499 11.6366C12.3965 11.6899 12.3601 11.7579 12.3455 11.8319C12.3308 11.9059 12.3385 11.9826 12.3675 12.0523C12.3963 12.122 12.4452 12.1816 12.5079 12.2236C12.5706 12.2655 12.6444 12.2879 12.7198 12.2879C15.7956 12.2879 16.1518 13.5936 16.1518 14.5759C16.1518 15.3919 15.6896 16.0135 15.3944 16.33L17.886 18.8215C18.5602 18.3655 19.5181 17.827 19.965 17.8667V18.3891C19.965 18.4905 20.0054 18.5874 20.0764 18.6591L21.983 20.5657C22.0548 20.6369 22.1518 20.6769 22.2529 20.6771H22.2659C22.3181 20.6756 22.3693 20.6633 22.4165 20.641C22.4636 20.6187 22.5056 20.5868 22.5397 20.5474L25.209 17.4968C25.2729 17.4239 25.3066 17.3295 25.3035 17.2327C25.3004 17.1358 25.2606 17.0438 25.1922 16.9751ZM7.57656 24.1372C7.20516 24.5086 7 25.0028 7 25.5732C7 26.6584 7.88239 27.5408 8.96763 27.5408C9.52056 27.5408 10.0514 27.3059 10.4235 26.8972L17.3087 19.3234L14.8499 16.8638L7.57656 24.1372Z" fill="white"/>
<path class="text-path" d="M45.64 30C45.4053 30 45.2133 29.9253 45.064 29.776C44.9147 29.6267 44.84 29.4347 44.84 29.2V17.136H42.344C42.1093 17.136 41.9173 17.0613 41.768 16.912C41.6187 16.7627 41.544 16.5707 41.544 16.336V14.16C41.544 13.9253 41.6187 13.7333 41.768 13.584C41.9173 13.4347 42.1093 13.36 42.344 13.36H44.84V12.208C44.84 10.8427 45.096 9.72267 45.608 8.848C46.12 7.97333 46.8667 7.33333 47.848 6.928C48.8293 6.52267 50.0347 6.32 51.464 6.32H58.824C59.0373 6.32 59.2187 6.39467 59.368 6.544C59.5173 6.69333 59.592 6.88533 59.592 7.12V9.296C59.592 9.53067 59.5173 9.72267 59.368 9.872C59.2187 10.0213 59.0373 10.096 58.824 10.096H51.656C50.8667 10.096 50.312 10.288 49.992 10.672C49.6933 11.056 49.544 11.6213 49.544 12.368V13.36H58.824C59.0373 13.36 59.2187 13.4347 59.368 13.584C59.5173 13.7333 59.592 13.9253 59.592 14.16V29.2C59.592 29.4347 59.5173 29.6267 59.368 29.776C59.2187 29.9253 59.0373 30 58.824 30H55.688C55.4533 30 55.2613 29.9253 55.112 29.776C54.9627 29.6267 54.888 29.4347 54.888 29.2V17.136H49.544V29.2C49.544 29.4347 49.4693 29.6267 49.32 29.776C49.1707 29.9253 48.9893 30 48.776 30H45.64ZM64.3778 30C64.1644 30 63.9831 29.9253 63.8338 29.776C63.6844 29.6267 63.6098 29.4347 63.6098 29.2V14.16C63.6098 13.9253 63.6844 13.7333 63.8338 13.584C63.9831 13.4347 64.1644 13.36 64.3778 13.36H67.5138C67.7484 13.36 67.9404 13.4347 68.0898 13.584C68.2391 13.7333 68.3138 13.9253 68.3138 14.16V15.408C68.8684 14.7253 69.5831 14.16 70.4578 13.712C71.3324 13.264 72.3991 13.04 73.6578 13.04C74.9164 13.04 76.0151 13.328 76.9538 13.904C77.9138 14.4587 78.6604 15.28 79.1938 16.368C79.7484 17.4347 80.0258 18.736 80.0258 20.272V29.2C80.0258 29.4347 79.9404 29.6267 79.7698 29.776C79.6204 29.9253 79.4391 30 79.2257 30H75.8338C75.5991 30 75.4071 29.9253 75.2578 29.776C75.1084 29.6267 75.0338 29.4347 75.0338 29.2V20.464C75.0338 19.3333 74.7564 18.4587 74.2018 17.84C73.6684 17.2 72.8791 16.88 71.8338 16.88C70.8311 16.88 70.0311 17.2 69.4338 17.84C68.8364 18.4587 68.5378 19.3333 68.5378 20.464V29.2C68.5378 29.4347 68.4631 29.6267 68.3138 29.776C68.1644 29.9253 67.9831 30 67.7698 30H64.3778ZM90.0358 30.32C88.9691 30.32 88.0198 30.1493 87.1878 29.808C86.3558 29.4453 85.6518 28.9333 85.0758 28.272C84.4998 27.5893 84.0624 26.7893 83.7638 25.872C83.4651 24.9333 83.2838 23.8987 83.2198 22.768C83.1984 22.3627 83.1878 22 83.1878 21.68C83.1878 21.3387 83.1984 20.976 83.2198 20.592C83.2624 19.4827 83.4331 18.4693 83.7318 17.552C84.0518 16.6347 84.4891 15.8453 85.0438 15.184C85.6198 14.5013 86.3238 13.9787 87.1558 13.616C88.0091 13.232 88.9691 13.04 90.0358 13.04C91.1451 13.04 92.0944 13.232 92.8838 13.616C93.6731 13.9787 94.3238 14.4587 94.8358 15.056V8.08C94.8358 7.84533 94.9104 7.65333 95.0598 7.504C95.2091 7.35467 95.4011 7.28 95.6358 7.28H98.9318C99.1451 7.28 99.3264 7.35467 99.4757 7.504C99.6251 7.65333 99.6998 7.84533 99.6998 8.08V29.2C99.6998 29.4347 99.6251 29.6267 99.4757 29.776C99.3264 29.9253 99.1451 30 98.9318 30H95.8598C95.6464 30 95.4651 29.9253 95.3158 29.776C95.1664 29.6267 95.0918 29.4347 95.0918 29.2V28.112C94.5584 28.752 93.8864 29.2853 93.0758 29.712C92.2651 30.1173 91.2518 30.32 90.0358 30.32ZM91.5078 26.48C92.2971 26.48 92.9264 26.2987 93.3958 25.936C93.8864 25.5733 94.2384 25.1147 94.4518 24.56C94.6864 24.0053 94.8144 23.408 94.8358 22.768C94.8784 22.3627 94.8998 21.9573 94.8998 21.552C94.8998 21.1467 94.8784 20.752 94.8358 20.368C94.8144 19.7707 94.6864 19.216 94.4518 18.704C94.2171 18.1707 93.8544 17.7333 93.3638 17.392C92.8944 17.0507 92.2758 16.88 91.5078 16.88C90.6971 16.88 90.0571 17.0613 89.5878 17.424C89.1184 17.7653 88.7771 18.224 88.5638 18.8C88.3718 19.376 88.2544 20.0053 88.2118 20.688C88.1478 21.3493 88.1478 22.0107 88.2118 22.672C88.2544 23.3547 88.3718 23.984 88.5638 24.56C88.7771 25.136 89.1184 25.6053 89.5878 25.968C90.0571 26.3093 90.6971 26.48 91.5078 26.48ZM103.03 30C102.859 30 102.71 29.936 102.582 29.808C102.454 29.68 102.39 29.5307 102.39 29.36C102.39 29.2533 102.401 29.136 102.422 29.008L110.358 8.304C110.443 8.09067 110.561 7.92 110.71 7.792C110.859 7.664 111.083 7.6 111.382 7.6H113.558C113.835 7.6 114.049 7.664 114.198 7.792C114.369 7.92 114.497 8.09067 114.582 8.304L122.486 29.008C122.529 29.136 122.55 29.2533 122.55 29.36C122.55 29.5307 122.486 29.68 122.358 29.808C122.23 29.936 122.081 30 121.91 30H120.278C120.022 30 119.83 29.936 119.702 29.808C119.595 29.68 119.521 29.5627 119.478 29.456L117.718 24.912H107.222L105.462 29.456C105.441 29.5627 105.366 29.68 105.238 29.808C105.11 29.936 104.918 30 104.662 30H103.03ZM108.15 22.16H116.79L112.47 10.8L108.15 22.16ZM126.292 30C126.078 30 125.897 29.936 125.748 29.808C125.62 29.6587 125.556 29.4773 125.556 29.264V14.128C125.556 13.9147 125.62 13.7333 125.748 13.584C125.897 13.4347 126.078 13.36 126.292 13.36H127.764C127.977 13.36 128.158 13.4347 128.308 13.584C128.457 13.7333 128.532 13.9147 128.532 14.128V15.536C128.958 14.8107 129.545 14.2667 130.292 13.904C131.038 13.5413 131.934 13.36 132.98 13.36H134.26C134.473 13.36 134.644 13.4347 134.772 13.584C134.9 13.712 134.964 13.8827 134.964 14.096V15.408C134.964 15.6213 134.9 15.792 134.772 15.92C134.644 16.048 134.473 16.112 134.26 16.112H132.34C131.188 16.112 130.281 16.4533 129.62 17.136C128.958 17.7973 128.628 18.704 128.628 19.856V29.264C128.628 29.4773 128.553 29.6587 128.404 29.808C128.254 29.936 128.073 30 127.86 30H126.292ZM144.208 30C143.013 30 142.042 29.776 141.296 29.328C140.549 28.8587 140.005 28.208 139.664 27.376C139.322 26.5227 139.152 25.52 139.152 24.368V15.92H136.656C136.442 15.92 136.261 15.856 136.112 15.728C135.984 15.5787 135.92 15.3973 135.92 15.184V14.096C135.92 13.8827 135.984 13.712 136.112 13.584C136.261 13.4347 136.442 13.36 136.656 13.36H139.152V8.016C139.152 7.80267 139.216 7.632 139.344 7.504C139.493 7.35467 139.674 7.28 139.888 7.28H141.392C141.605 7.28 141.776 7.35467 141.904 7.504C142.053 7.632 142.128 7.80267 142.128 8.016V13.36H146.096C146.309 13.36 146.48 13.4347 146.608 13.584C146.757 13.712 146.832 13.8827 146.832 14.096V15.184C146.832 15.3973 146.757 15.5787 146.608 15.728C146.48 15.856 146.309 15.92 146.096 15.92H142.128V24.144C142.128 25.1467 142.298 25.936 142.64 26.512C142.981 27.088 143.589 27.376 144.464 27.376H146.416C146.629 27.376 146.8 27.4507 146.928 27.6C147.077 27.728 147.152 27.8987 147.152 28.112V29.264C147.152 29.4773 147.077 29.6587 146.928 29.808C146.8 29.936 146.629 30 146.416 30H144.208ZM150.948 30C150.734 30 150.553 29.936 150.404 29.808C150.276 29.6587 150.212 29.4773 150.212 29.264V14.096C150.212 13.8827 150.276 13.712 150.404 13.584C150.553 13.4347 150.734 13.36 150.948 13.36H152.484C152.697 13.36 152.868 13.4347 152.996 13.584C153.124 13.712 153.188 13.8827 153.188 14.096V29.264C153.188 29.4773 153.124 29.6587 152.996 29.808C152.868 29.936 152.697 30 152.484 30H150.948ZM150.692 10.256C150.478 10.256 150.297 10.192 150.148 10.064C150.02 9.91467 149.956 9.73333 149.956 9.52V7.792C149.956 7.57867 150.02 7.408 150.148 7.28C150.297 7.13067 150.478 7.056 150.692 7.056H152.708C152.921 7.056 153.092 7.13067 153.22 7.28C153.369 7.408 153.444 7.57867 153.444 7.792V9.52C153.444 9.73333 153.369 9.91467 153.22 10.064C153.092 10.192 152.921 10.256 152.708 10.256H150.692ZM163.722 30.32C162.527 30.32 161.503 30.1707 160.65 29.872C159.796 29.5733 159.103 29.2107 158.57 28.784C158.036 28.3573 157.631 27.9307 157.354 27.504C157.098 27.0773 156.959 26.736 156.938 26.48C156.916 26.2453 156.991 26.064 157.162 25.936C157.332 25.808 157.503 25.744 157.674 25.744H159.082C159.21 25.744 159.306 25.7653 159.37 25.808C159.455 25.8293 159.562 25.9147 159.69 26.064C159.967 26.3627 160.276 26.6613 160.618 26.96C160.959 27.2587 161.375 27.504 161.866 27.696C162.378 27.888 163.007 27.984 163.754 27.984C164.842 27.984 165.738 27.7813 166.442 27.376C167.146 26.9493 167.498 26.3307 167.498 25.52C167.498 24.9867 167.348 24.56 167.05 24.24C166.772 23.92 166.26 23.632 165.514 23.376C164.788 23.12 163.786 22.8533 162.506 22.576C161.226 22.2773 160.212 21.9147 159.466 21.488C158.719 21.04 158.186 20.5173 157.866 19.92C157.546 19.3013 157.386 18.608 157.386 17.84C157.386 17.0507 157.62 16.2933 158.09 15.568C158.559 14.8213 159.242 14.2133 160.138 13.744C161.055 13.2747 162.196 13.04 163.562 13.04C164.671 13.04 165.62 13.1787 166.41 13.456C167.199 13.7333 167.85 14.0853 168.362 14.512C168.874 14.9173 169.258 15.3227 169.514 15.728C169.77 16.1333 169.908 16.4747 169.93 16.752C169.951 16.9653 169.887 17.1467 169.738 17.296C169.588 17.424 169.418 17.488 169.226 17.488H167.882C167.732 17.488 167.604 17.456 167.498 17.392C167.412 17.328 167.327 17.2533 167.242 17.168C167.028 16.8907 166.772 16.6133 166.474 16.336C166.196 16.0587 165.823 15.8347 165.354 15.664C164.906 15.472 164.308 15.376 163.562 15.376C162.495 15.376 161.695 15.6 161.162 16.048C160.628 16.496 160.362 17.0613 160.362 17.744C160.362 18.1493 160.479 18.512 160.714 18.832C160.948 19.152 161.396 19.44 162.058 19.696C162.719 19.952 163.7 20.2293 165.002 20.528C166.41 20.8053 167.519 21.1787 168.33 21.648C169.14 22.1173 169.716 22.6613 170.058 23.28C170.399 23.8987 170.57 24.6133 170.57 25.424C170.57 26.32 170.303 27.1413 169.77 27.888C169.258 28.6347 168.49 29.232 167.466 29.68C166.463 30.1067 165.215 30.32 163.722 30.32ZM178.914 30.32C177.848 30.32 176.877 30.1067 176.002 29.68C175.128 29.2533 174.424 28.6773 173.89 27.952C173.357 27.2267 173.09 26.4053 173.09 25.488C173.09 24.016 173.688 22.8427 174.882 21.968C176.077 21.0933 177.634 20.5173 179.554 20.24L184.322 19.568V18.64C184.322 17.616 184.024 16.816 183.426 16.24C182.85 15.664 181.901 15.376 180.578 15.376C179.618 15.376 178.84 15.568 178.242 15.952C177.666 16.336 177.261 16.8267 177.026 17.424C176.898 17.744 176.674 17.904 176.354 17.904H174.914C174.68 17.904 174.498 17.84 174.37 17.712C174.264 17.5627 174.21 17.392 174.21 17.2C174.21 16.88 174.328 16.4853 174.562 16.016C174.818 15.5467 175.202 15.088 175.714 14.64C176.226 14.192 176.877 13.8187 177.666 13.52C178.477 13.2 179.458 13.04 180.61 13.04C181.89 13.04 182.968 13.2107 183.842 13.552C184.717 13.872 185.4 14.3093 185.89 14.864C186.402 15.4187 186.765 16.048 186.978 16.752C187.213 17.456 187.33 18.1707 187.33 18.896V29.264C187.33 29.4773 187.256 29.6587 187.106 29.808C186.978 29.936 186.808 30 186.594 30H185.122C184.888 30 184.706 29.936 184.578 29.808C184.45 29.6587 184.386 29.4773 184.386 29.264V27.888C184.109 28.272 183.736 28.656 183.266 29.04C182.797 29.4027 182.21 29.712 181.506 29.968C180.802 30.2027 179.938 30.32 178.914 30.32ZM179.586 27.92C180.461 27.92 181.261 27.7387 181.986 27.376C182.712 26.992 183.277 26.4053 183.682 25.616C184.109 24.8267 184.322 23.8347 184.322 22.64V21.744L180.61 22.288C179.096 22.5013 177.954 22.864 177.186 23.376C176.418 23.8667 176.034 24.496 176.034 25.264C176.034 25.8613 176.205 26.3627 176.546 26.768C176.909 27.152 177.357 27.44 177.89 27.632C178.445 27.824 179.01 27.92 179.586 27.92ZM192.667 30C192.453 30 192.272 29.936 192.123 29.808C191.995 29.6587 191.931 29.4773 191.931 29.264V14.096C191.931 13.8827 191.995 13.712 192.123 13.584C192.272 13.4347 192.453 13.36 192.667 13.36H194.171C194.384 13.36 194.555 13.4347 194.683 13.584C194.832 13.712 194.907 13.8827 194.907 14.096V15.504C195.461 14.7787 196.155 14.192 196.987 13.744C197.84 13.2747 198.928 13.04 200.251 13.04C201.637 13.04 202.811 13.3493 203.771 13.968C204.752 14.5653 205.488 15.408 205.979 16.496C206.469 17.5627 206.715 18.8107 206.715 20.24V29.264C206.715 29.4773 206.651 29.6587 206.523 29.808C206.395 29.936 206.224 30 206.01 30H204.411C204.197 30 204.016 29.936 203.867 29.808C203.739 29.6587 203.675 29.4773 203.675 29.264V20.4C203.675 18.9067 203.312 17.744 202.587 16.912C201.861 16.0587 200.795 15.632 199.387 15.632C198.064 15.632 196.997 16.0587 196.187 16.912C195.397 17.744 195.003 18.9067 195.003 20.4V29.264C195.003 29.4773 194.928 29.6587 194.779 29.808C194.651 29.936 194.48 30 194.266 30H192.667Z"/>
</svg>
