<svg width="190" height="32" viewBox="0 0 190 32" fill="none" xmlns="http://www.w3.org/2000/svg">
<circle cx="13.4095" cy="16" r="13.4095" fill="#00BBA7"/>
<line x1="21.7552" y1="25.0899" x2="26.8026" y2="29.2804" stroke="#00BBA7" stroke-width="2.51429"/>
<path d="M21.113 14.303L19.8346 13.0246C19.8049 12.995 19.7696 12.9714 19.7308 12.9554C19.692 12.9394 19.6504 12.9312 19.6084 12.9313H19.2888V12.6117C19.2888 12.5267 19.2549 12.4455 19.1955 12.3854L16.6388 9.82877C16.1262 9.3162 15.2671 8.45715 13.5363 8.45715C11.8067 8.45715 11.0134 9.25037 10.4337 9.8288C10.389 9.87348 10.3585 9.93045 10.3462 9.99248C10.3339 10.0545 10.3404 10.1188 10.3647 10.1772C10.3889 10.2356 10.4298 10.2856 10.4824 10.3207C10.5349 10.3559 10.5968 10.3747 10.66 10.3747C13.2378 10.3747 13.5363 11.4689 13.5363 12.2922C13.5363 12.9761 13.1489 13.497 12.9016 13.7623L14.9897 15.8505C15.5548 15.4682 16.3575 15.017 16.7321 15.0502V15.488C16.7321 15.573 16.766 15.6542 16.8255 15.7143L18.4234 17.3122C18.4836 17.3719 18.5649 17.4054 18.6496 17.4056H18.6605C18.7042 17.4043 18.7472 17.3941 18.7867 17.3753C18.8262 17.3566 18.8614 17.3299 18.89 17.2969L21.1271 14.7402C21.1806 14.6791 21.2089 14.6 21.2063 14.5188C21.2037 14.4376 21.1703 14.3605 21.113 14.303ZM6.34942 20.3055C6.03816 20.6167 5.86621 21.0309 5.86621 21.509C5.86621 22.4185 6.60574 23.1581 7.51527 23.1581C7.97868 23.1581 8.42354 22.9612 8.73544 22.6186L14.5059 16.271L12.4452 14.2097L6.34942 20.3055Z" fill="white"/>
<path d="M37.0164 25C36.8197 25 36.6588 24.9374 36.5337 24.8123C36.4085 24.6871 36.3459 24.5262 36.3459 24.3295V6.89713C36.3459 6.70046 36.4085 6.53955 36.5337 6.41439C36.6588 6.28923 36.8197 6.22666 37.0164 6.22666H48.9777C49.1744 6.22666 49.3353 6.28923 49.4605 6.41439C49.5856 6.53955 49.6482 6.70046 49.6482 6.89713V9.17675C49.6482 9.37343 49.5856 9.53434 49.4605 9.6595C49.3353 9.78465 49.1744 9.84723 48.9777 9.84723H40.5297V14.3797H48.4413C48.638 14.3797 48.7989 14.4422 48.9241 14.5674C49.0492 14.6925 49.1118 14.8535 49.1118 15.0501V17.3297C49.1118 17.5085 49.0492 17.6605 48.9241 17.7857C48.7989 17.9108 48.638 17.9734 48.4413 17.9734H40.5297V24.3295C40.5297 24.5262 40.4671 24.6871 40.342 24.8123C40.2168 24.9374 40.0559 25 39.8592 25H37.0164ZM53.0375 25C52.8587 25 52.7067 24.9374 52.5815 24.8123C52.4564 24.6871 52.3938 24.5262 52.3938 24.3295V11.7246C52.3938 11.5279 52.4564 11.367 52.5815 11.2418C52.7067 11.1167 52.8587 11.0541 53.0375 11.0541H55.7194C55.916 11.0541 56.0769 11.1167 56.2021 11.2418C56.3273 11.367 56.3898 11.5279 56.3898 11.7246V24.3295C56.3898 24.5262 56.3273 24.6871 56.2021 24.8123C56.0769 24.9374 55.916 25 55.7194 25H53.0375ZM52.957 8.90856C52.7782 8.90856 52.6262 8.84598 52.5011 8.72083C52.3759 8.59567 52.3133 8.43476 52.3133 8.23809V6.09256C52.3133 5.89589 52.3759 5.73497 52.5011 5.60982C52.6262 5.46678 52.7782 5.39527 52.957 5.39527H55.773C55.9697 5.39527 56.1306 5.46678 56.2557 5.60982C56.3988 5.73497 56.4703 5.89589 56.4703 6.09256V8.23809C56.4703 8.43476 56.3988 8.59567 56.2557 8.72083C56.1306 8.84598 55.9697 8.90856 55.773 8.90856H52.957ZM60.397 25C60.2182 25 60.0662 24.9374 59.9411 24.8123C59.8159 24.6871 59.7533 24.5262 59.7533 24.3295V11.7246C59.7533 11.5279 59.8159 11.367 59.9411 11.2418C60.0662 11.1167 60.2182 11.0541 60.397 11.0541H63.0252C63.2219 11.0541 63.3828 11.1167 63.508 11.2418C63.6331 11.367 63.6957 11.5279 63.6957 11.7246V12.7705C64.1606 12.1984 64.7595 11.7246 65.4926 11.3491C66.2257 10.9736 67.1196 10.7859 68.1745 10.7859C69.2294 10.7859 70.1502 11.0273 70.9369 11.51C71.7414 11.9749 72.3672 12.6632 72.8142 13.5751C73.2791 14.469 73.5115 15.5597 73.5115 16.847V24.3295C73.5115 24.5262 73.44 24.6871 73.2969 24.8123C73.1718 24.9374 73.0198 25 72.841 25H69.9982C69.8015 25 69.6406 24.9374 69.5155 24.8123C69.3903 24.6871 69.3277 24.5262 69.3277 24.3295V17.0079C69.3277 16.0603 69.0953 15.3273 68.6304 14.8088C68.1834 14.2724 67.5219 14.0042 66.6458 14.0042C65.8055 14.0042 65.135 14.2724 64.6344 14.8088C64.1338 15.3273 63.8835 16.0603 63.8835 17.0079V24.3295C63.8835 24.5262 63.8209 24.6871 63.6957 24.8123C63.5706 24.9374 63.4186 25 63.2398 25H60.397ZM81.9008 25.2682C81.0069 25.2682 80.2112 25.1252 79.5139 24.8391C78.8166 24.5351 78.2266 24.106 77.7439 23.5518C77.2611 22.9796 76.8946 22.3092 76.6443 21.5403C76.394 20.7536 76.242 19.8865 76.1884 18.9389C76.1705 18.5992 76.1616 18.2952 76.1616 18.027C76.1616 17.741 76.1705 17.437 76.1884 17.1152C76.2241 16.1855 76.3672 15.3362 76.6175 14.5674C76.8857 13.7986 77.2522 13.137 77.7171 12.5828C78.1998 12.0106 78.7898 11.5726 79.4871 11.2686C80.2023 10.9468 81.0069 10.7859 81.9008 10.7859C82.8306 10.7859 83.6262 10.9468 84.2877 11.2686C84.9493 11.5726 85.4946 11.9749 85.9237 12.4755V6.62894C85.9237 6.43227 85.9863 6.27135 86.1114 6.1462C86.2366 6.02104 86.3975 5.95847 86.5942 5.95847H89.3565C89.5353 5.95847 89.6873 6.02104 89.8125 6.1462C89.9376 6.27135 90.0002 6.43227 90.0002 6.62894V24.3295C90.0002 24.5262 89.9376 24.6871 89.8125 24.8123C89.6873 24.9374 89.5353 25 89.3565 25H86.7819C86.6031 25 86.4511 24.9374 86.326 24.8123C86.2008 24.6871 86.1382 24.5262 86.1382 24.3295V23.4177C85.6913 23.9541 85.1281 24.401 84.4486 24.7586C83.7692 25.0983 82.92 25.2682 81.9008 25.2682ZM83.1345 22.0499C83.7961 22.0499 84.3235 21.8979 84.7168 21.594C85.1281 21.29 85.4231 20.9056 85.6019 20.4408C85.7985 19.9759 85.9058 19.4753 85.9237 18.9389C85.9595 18.5992 85.9773 18.2595 85.9773 17.9198C85.9773 17.5801 85.9595 17.2493 85.9237 16.9275C85.9058 16.4268 85.7985 15.962 85.6019 15.5329C85.4052 15.0859 85.1012 14.7194 84.69 14.4333C84.2967 14.1472 83.7782 14.0042 83.1345 14.0042C82.4551 14.0042 81.9187 14.1562 81.5254 14.4601C81.132 14.7462 80.846 15.1306 80.6672 15.6133C80.5062 16.0961 80.4079 16.6235 80.3721 17.1957C80.3185 17.7499 80.3185 18.3042 80.3721 18.8584C80.4079 19.4306 80.5062 19.958 80.6672 20.4408C80.846 20.9235 81.132 21.3168 81.5254 21.6208C81.9187 21.9069 82.4551 22.0499 83.1345 22.0499ZM92.6035 25C92.4426 25 92.3085 24.9464 92.2012 24.8391C92.094 24.7139 92.0403 24.5798 92.0403 24.4368C92.0403 24.3474 92.0493 24.2669 92.0671 24.1954L98.4501 6.95077C98.5037 6.7541 98.611 6.58424 98.7719 6.44121C98.9328 6.29817 99.1563 6.22666 99.4424 6.22666H102.875C103.161 6.22666 103.385 6.29817 103.546 6.44121C103.707 6.58424 103.814 6.7541 103.868 6.95077L110.25 24.1954C110.268 24.2669 110.277 24.3474 110.277 24.4368C110.277 24.5798 110.224 24.7139 110.116 24.8391C110.009 24.9464 109.875 25 109.714 25H106.925C106.657 25 106.46 24.9374 106.335 24.8123C106.21 24.6871 106.129 24.5709 106.094 24.4636L104.94 21.4599H97.3773L96.2241 24.4636C96.1883 24.5709 96.1079 24.6871 95.9827 24.8123C95.8576 24.9374 95.6609 25 95.3927 25H92.6035ZM98.3696 18.0002H103.921L101.159 10.2763L98.3696 18.0002ZM112.935 25C112.756 25 112.604 24.9374 112.479 24.8123C112.354 24.6871 112.291 24.5262 112.291 24.3295V11.7246C112.291 11.5458 112.354 11.3938 112.479 11.2686C112.604 11.1256 112.756 11.0541 112.935 11.0541H115.563C115.742 11.0541 115.894 11.1256 116.019 11.2686C116.162 11.3938 116.234 11.5458 116.234 11.7246V12.7973C116.681 12.2431 117.226 11.814 117.87 11.51C118.531 11.2061 119.291 11.0541 120.149 11.0541H121.303C121.481 11.0541 121.633 11.1167 121.759 11.2418C121.884 11.367 121.946 11.5279 121.946 11.7246V14.031C121.946 14.2277 121.884 14.3886 121.759 14.5137C121.633 14.6389 121.481 14.7015 121.303 14.7015H118.943C118.156 14.7015 117.539 14.925 117.092 15.372C116.645 15.8011 116.422 16.4179 116.422 17.2225V24.3295C116.422 24.5262 116.359 24.6871 116.234 24.8123C116.109 24.9374 115.948 25 115.751 25H112.935ZM130.651 25C129.542 25 128.595 24.8212 127.808 24.4636C127.021 24.0882 126.423 23.516 126.011 22.7472C125.618 21.9784 125.421 21.0129 125.421 19.8507V14.2187H123.329C123.133 14.2187 122.972 14.1562 122.847 14.031C122.721 13.9058 122.659 13.7449 122.659 13.5483V11.7246C122.659 11.5279 122.721 11.367 122.847 11.2418C122.972 11.1167 123.133 11.0541 123.329 11.0541H125.421V6.62894C125.421 6.43227 125.484 6.27135 125.609 6.1462C125.752 6.02104 125.913 5.95847 126.092 5.95847H128.72C128.917 5.95847 129.078 6.02104 129.203 6.1462C129.328 6.27135 129.39 6.43227 129.39 6.62894V11.0541H132.743C132.922 11.0541 133.074 11.1167 133.199 11.2418C133.324 11.367 133.387 11.5279 133.387 11.7246V13.5483C133.387 13.7449 133.324 13.9058 133.199 14.031C133.074 14.1562 132.922 14.2187 132.743 14.2187H129.39V19.5289C129.39 20.2083 129.507 20.7447 129.739 21.1381C129.989 21.5135 130.419 21.7013 131.026 21.7013H132.984C133.163 21.7013 133.315 21.7638 133.44 21.889C133.565 22.0141 133.628 22.1661 133.628 22.3449V24.3295C133.628 24.5262 133.565 24.6871 133.44 24.8123C133.315 24.9374 133.163 25 132.984 25H130.651ZM136.611 25C136.433 25 136.281 24.9374 136.155 24.8123C136.03 24.6871 135.968 24.5262 135.968 24.3295V11.7246C135.968 11.5279 136.03 11.367 136.155 11.2418C136.281 11.1167 136.433 11.0541 136.611 11.0541H139.293C139.49 11.0541 139.651 11.1167 139.776 11.2418C139.901 11.367 139.964 11.5279 139.964 11.7246V24.3295C139.964 24.5262 139.901 24.6871 139.776 24.8123C139.651 24.9374 139.49 25 139.293 25H136.611ZM136.531 8.90856C136.352 8.90856 136.2 8.84598 136.075 8.72083C135.95 8.59567 135.887 8.43476 135.887 8.23809V6.09256C135.887 5.89589 135.95 5.73497 136.075 5.60982C136.2 5.46678 136.352 5.39527 136.531 5.39527H139.347C139.544 5.39527 139.704 5.46678 139.83 5.60982C139.973 5.73497 140.044 5.89589 140.044 6.09256V8.23809C140.044 8.43476 139.973 8.59567 139.83 8.72083C139.704 8.84598 139.544 8.90856 139.347 8.90856H136.531ZM148.825 25.2682C147.717 25.2682 146.76 25.143 145.955 24.8927C145.169 24.6245 144.525 24.3027 144.024 23.9272C143.542 23.5518 143.175 23.1763 142.925 22.8008C142.692 22.4075 142.567 22.0767 142.549 21.8085C142.532 21.6119 142.594 21.4509 142.737 21.3258C142.88 21.2006 143.023 21.1381 143.166 21.1381H145.768C145.821 21.1381 145.875 21.147 145.929 21.1649C145.982 21.1828 146.036 21.2275 146.09 21.299C146.322 21.4599 146.563 21.6476 146.814 21.8622C147.064 22.0588 147.35 22.2287 147.672 22.3717C148.012 22.5148 148.432 22.5863 148.932 22.5863C149.522 22.5863 150.023 22.4701 150.434 22.2376C150.845 21.9873 151.051 21.6387 151.051 21.1917C151.051 20.8699 150.953 20.6017 150.756 20.3871C150.577 20.1726 150.229 19.9759 149.71 19.7971C149.192 19.6183 148.423 19.4216 147.404 19.2071C146.438 18.9925 145.616 18.7065 144.936 18.3489C144.257 17.9913 143.747 17.5443 143.408 17.0079C143.068 16.4537 142.898 15.7921 142.898 15.0233C142.898 14.326 143.113 13.6555 143.542 13.0119C143.989 12.3682 144.641 11.8408 145.5 11.4296C146.358 11.0004 147.43 10.7859 148.718 10.7859C149.701 10.7859 150.559 10.9111 151.292 11.1614C152.043 11.3938 152.669 11.6977 153.17 12.0732C153.67 12.4308 154.046 12.8063 154.296 13.1996C154.564 13.5751 154.707 13.9058 154.725 14.1919C154.743 14.3707 154.69 14.5227 154.564 14.6478C154.439 14.773 154.296 14.8356 154.135 14.8356H151.748C151.659 14.8356 151.579 14.8266 151.507 14.8088C151.435 14.773 151.373 14.7283 151.319 14.6747C151.105 14.5316 150.881 14.3707 150.649 14.1919C150.434 13.9952 150.175 13.8254 149.871 13.6824C149.567 13.5393 149.174 13.4678 148.691 13.4678C148.101 13.4678 147.645 13.6019 147.323 13.8701C147.019 14.1204 146.867 14.4422 146.867 14.8356C146.867 15.0859 146.948 15.3183 147.109 15.5329C147.27 15.7474 147.6 15.9441 148.101 16.1229C148.602 16.3017 149.361 16.4894 150.381 16.6861C151.596 16.9006 152.562 17.2225 153.277 17.6516C153.992 18.0807 154.502 18.5813 154.806 19.1534C155.128 19.7077 155.288 20.3067 155.288 20.9503C155.288 21.7907 155.038 22.5416 154.538 23.2031C154.037 23.8468 153.304 24.3563 152.338 24.7318C151.391 25.0894 150.22 25.2682 148.825 25.2682ZM161.966 25.2682C161.019 25.2682 160.169 25.0894 159.418 24.7318C158.667 24.3563 158.069 23.8557 157.622 23.2299C157.175 22.6042 156.951 21.9069 156.951 21.1381C156.951 19.8686 157.461 18.8674 158.48 18.1343C159.517 17.4013 160.876 16.9006 162.556 16.6325L166.07 16.1229V15.6401C166.07 14.9429 165.909 14.4065 165.587 14.031C165.265 13.6555 164.702 13.4678 163.897 13.4678C163.307 13.4678 162.833 13.584 162.476 13.8165C162.118 14.0489 161.841 14.3528 161.644 14.7283C161.501 14.9607 161.296 15.0769 161.028 15.0769H158.48C158.283 15.0769 158.131 15.0233 158.024 14.916C157.917 14.7909 157.872 14.6478 157.89 14.4869C157.89 14.183 158.006 13.8254 158.238 13.4142C158.471 13.0029 158.828 12.6007 159.311 12.2073C159.794 11.7961 160.411 11.4564 161.162 11.1882C161.913 10.92 162.833 10.7859 163.924 10.7859C165.05 10.7859 166.016 10.92 166.82 11.1882C167.625 11.4564 168.269 11.8318 168.751 12.3146C169.234 12.7973 169.592 13.3605 169.824 14.0042C170.057 14.63 170.173 15.3094 170.173 16.0424V24.3295C170.173 24.5262 170.11 24.6871 169.985 24.8123C169.86 24.9374 169.699 25 169.502 25H166.874C166.695 25 166.543 24.9374 166.418 24.8123C166.293 24.6871 166.23 24.5262 166.23 24.3295V23.3372C165.998 23.6769 165.685 23.9988 165.292 24.3027C164.898 24.5888 164.425 24.8212 163.87 25C163.334 25.1788 162.699 25.2682 161.966 25.2682ZM163.039 22.479C163.629 22.479 164.156 22.3539 164.621 22.1035C165.086 21.8532 165.453 21.4688 165.721 20.9503C165.989 20.4318 166.123 19.7792 166.123 18.9925V18.5366L163.629 18.9389C162.664 19.0998 161.957 19.3412 161.51 19.663C161.063 19.9848 160.84 20.3782 160.84 20.843C160.84 21.1828 160.938 21.4778 161.135 21.7281C161.349 21.9784 161.627 22.1661 161.966 22.2913C162.306 22.4164 162.664 22.479 163.039 22.479ZM174.064 25C173.885 25 173.733 24.9374 173.608 24.8123C173.483 24.6871 173.42 24.5262 173.42 24.3295V11.7246C173.42 11.5279 173.483 11.367 173.608 11.2418C173.733 11.1167 173.885 11.0541 174.064 11.0541H176.692C176.889 11.0541 177.05 11.1167 177.175 11.2418C177.3 11.367 177.362 11.5279 177.362 11.7246V12.7705C177.827 12.1984 178.426 11.7246 179.159 11.3491C179.892 10.9736 180.786 10.7859 181.841 10.7859C182.896 10.7859 183.817 11.0273 184.604 11.51C185.408 11.9749 186.034 12.6632 186.481 13.5751C186.946 14.469 187.178 15.5597 187.178 16.847V24.3295C187.178 24.5262 187.107 24.6871 186.964 24.8123C186.839 24.9374 186.687 25 186.508 25H183.665C183.468 25 183.307 24.9374 183.182 24.8123C183.057 24.6871 182.994 24.5262 182.994 24.3295V17.0079C182.994 16.0603 182.762 15.3273 182.297 14.8088C181.85 14.2724 181.189 14.0042 180.313 14.0042C179.472 14.0042 178.802 14.2724 178.301 14.8088C177.8 15.3273 177.55 16.0603 177.55 17.0079V24.3295C177.55 24.5262 177.488 24.6871 177.362 24.8123C177.237 24.9374 177.085 25 176.907 25H174.064Z" fill="black"/>
</svg>
