<svg width="736" height="420" viewBox="0 0 736 420" fill="none" xmlns="http://www.w3.org/2000/svg">
<g clip-path="url(#clip0_487_873)">
<path d="M0 0H64V420H0V0Z" fill="url(#paint0_linear_487_873)"/>
<path d="M84 0H148V420H84V0Z" fill="url(#paint1_linear_487_873)"/>
<path d="M168 0H232V420H168V0Z" fill="url(#paint2_linear_487_873)"/>
<path d="M252 0H316V420H252V0Z" fill="url(#paint3_linear_487_873)"/>
<path d="M336 0H400V420H336V0Z" fill="url(#paint4_linear_487_873)"/>
<path d="M420 0H484V420H420V0Z" fill="url(#paint5_linear_487_873)"/>
<path d="M504 0H568V420H504V0Z" fill="url(#paint6_linear_487_873)"/>
<path d="M588 0H652V420H588V0Z" fill="url(#paint7_linear_487_873)"/>
<path d="M672 0H736V420H672V0Z" fill="url(#paint8_linear_487_873)"/>
</g>
<defs>
<linearGradient id="paint0_linear_487_873" x1="32" y1="0" x2="32" y2="420" gradientUnits="userSpaceOnUse">
<stop stop-color="#636363"/>
<stop offset="0.235" stop-color="#525252"/>
<stop offset="1" stop-color="#292929" stop-opacity="0"/>
</linearGradient>
<linearGradient id="paint1_linear_487_873" x1="116" y1="0" x2="116" y2="420" gradientUnits="userSpaceOnUse">
<stop stop-color="#636363"/>
<stop offset="0.235" stop-color="#525252"/>
<stop offset="1" stop-color="#292929" stop-opacity="0"/>
</linearGradient>
<linearGradient id="paint2_linear_487_873" x1="200" y1="0" x2="200" y2="420" gradientUnits="userSpaceOnUse">
<stop stop-color="#636363"/>
<stop offset="0.235" stop-color="#525252"/>
<stop offset="1" stop-color="#292929" stop-opacity="0"/>
</linearGradient>
<linearGradient id="paint3_linear_487_873" x1="284" y1="0" x2="284" y2="420" gradientUnits="userSpaceOnUse">
<stop stop-color="#636363"/>
<stop offset="0.235" stop-color="#525252"/>
<stop offset="1" stop-color="#292929" stop-opacity="0"/>
</linearGradient>
<linearGradient id="paint4_linear_487_873" x1="368" y1="0" x2="368" y2="420" gradientUnits="userSpaceOnUse">
<stop stop-color="#636363"/>
<stop offset="0.235" stop-color="#525252"/>
<stop offset="1" stop-color="#292929" stop-opacity="0"/>
</linearGradient>
<linearGradient id="paint5_linear_487_873" x1="452" y1="0" x2="452" y2="420" gradientUnits="userSpaceOnUse">
<stop stop-color="#636363"/>
<stop offset="0.235" stop-color="#525252"/>
<stop offset="1" stop-color="#292929" stop-opacity="0"/>
</linearGradient>
<linearGradient id="paint6_linear_487_873" x1="536" y1="0" x2="536" y2="420" gradientUnits="userSpaceOnUse">
<stop stop-color="#636363"/>
<stop offset="0.235" stop-color="#525252"/>
<stop offset="1" stop-color="#292929" stop-opacity="0"/>
</linearGradient>
<linearGradient id="paint7_linear_487_873" x1="620" y1="0" x2="620" y2="420" gradientUnits="userSpaceOnUse">
<stop stop-color="#636363"/>
<stop offset="0.235" stop-color="#525252"/>
<stop offset="1" stop-color="#292929" stop-opacity="0"/>
</linearGradient>
<linearGradient id="paint8_linear_487_873" x1="704" y1="0" x2="704" y2="420" gradientUnits="userSpaceOnUse">
<stop stop-color="#636363"/>
<stop offset="0.235" stop-color="#525252"/>
<stop offset="1" stop-color="#292929" stop-opacity="0"/>
</linearGradient>
<clipPath id="clip0_487_873">
<rect width="736" height="420" fill="white"/>
</clipPath>
</defs>
</svg>
